<svg xmlns="http://www.w3.org/2000/svg" viewBox="0 0 64 64" id="cursor">
  <defs>
    <linearGradient id="a" x1="4.011" x2="59.989" y1="32" y2="32" gradientUnits="userSpaceOnUse">
      <stop offset="0" stop-color="#ffa68d"></stop>
      <stop offset="1" stop-color="#fd3a84"></stop>
    </linearGradient>
  </defs>
  <path fill="url(#a)" d="M58.53688,30.53688H53.18659A21.26828,21.26828,0,0,0,33.47427,10.82456V5.47427a1.47428,1.47428,0,0,0-2.94855,0v5.35029A21.26828,21.26828,0,0,0,10.8134,30.53688H5.46311a1.47444,1.47444,0,0,0,.00008,2.94854H10.8134A21.26828,21.26828,0,0,0,30.52572,53.19775V58.548a1.47444,1.47444,0,0,0,2.94854-.00008V53.19775A21.26828,21.26828,0,0,0,53.18659,33.48543h5.35029A1.47445,1.47445,0,0,0,58.53688,30.53688Zm-8.31659,0H41.18282a9.31847,9.31847,0,0,0-7.70855-7.70855V13.79086A18.30368,18.30368,0,0,1,50.22029,30.53688Zm-19.69457,0H25.81683A6.37538,6.37538,0,0,1,30.52572,25.828Zm0,2.94855v4.70889a6.37538,6.37538,0,0,1-4.70889-4.70889Zm2.94855,0h4.70889a6.37538,6.37538,0,0,1-4.70889,4.70889Zm0-2.94855V25.828a6.37538,6.37538,0,0,1,4.70889,4.70889Zm-2.94855-16.746v9.03747a9.31847,9.31847,0,0,0-7.70855,7.70855H13.7797A18.30368,18.30368,0,0,1,30.52572,13.79086ZM13.7797,33.48543h9.03747A9.31847,9.31847,0,0,0,30.52572,41.194v9.03747A18.30368,18.30368,0,0,1,13.7797,33.48543Zm19.69457,16.746V41.194a9.31847,9.31847,0,0,0,7.70855-7.70855h9.03747A18.30368,18.30368,0,0,1,33.47427,50.23145Z"></path>
</svg>